<?xml version="1.0" encoding="UTF-8" standalone="no"?>
<!-- Created with Inkscape (http://www.inkscape.org/) -->

<svg
   xmlns:dc="http://purl.org/dc/elements/1.1/"
   xmlns:cc="http://creativecommons.org/ns#"
   xmlns:rdf="http://www.w3.org/1999/02/22-rdf-syntax-ns#"
   xmlns:svg="http://www.w3.org/2000/svg"
   xmlns="http://www.w3.org/2000/svg"
   xmlns:inkscape="http://www.inkscape.org/namespaces/inkscape"
   version="1.1"
   width="1200"
   height="700"
   id="svg2"
   xml:space="preserve"><metadata
     id="metadata8"><rdf:RDF><cc:Work
         rdf:about=""><dc:format>image/svg+xml</dc:format><dc:type
           rdf:resource="http://purl.org/dc/dcmitype/StillImage" /></cc:Work></rdf:RDF></metadata><defs
     id="defs6" /><g
     transform="matrix(1.25,0,0,-1.25,0,700)"
     id="g10"><g
       transform="scale(0.1,0.1)"
       id="g12"><path
         d="m 6074.86,4407.18 c -404.77,404.76 -973.55,640.37 -1545.96,640.37 -572.36,0 -1141.21,-235.61 -1545.91,-640.37 -404.75,-404.69 -640.42,-973.59 -640.42,-1545.96 0,-572.36 235.67,-1141.19 640.42,-1546 404.7,-404.7 973.55,-640.333 1545.91,-640.333 572.41,0 1141.19,235.633 1545.96,640.333 404.7,404.81 640.37,973.64 640.37,1546 0,572.37 -235.67,1141.27 -640.37,1545.96 M 6009.04,1381.14 C 5621.52,993.637 5076.91,768.039 4528.9,768.039 c -547.99,0 -1092.64,225.598 -1480.09,613.101 -387.43,387.51 -613.04,932.08 -613.04,1480.08 0,548 225.61,1092.64 613.04,1480.08 387.45,387.52 932.1,613.05 1480.09,613.05 548.01,0 1092.62,-225.53 1480.14,-613.05 387.43,-387.44 613.07,-932.08 613.07,-1480.08 0,-548 -225.64,-1092.57 -613.07,-1480.08"
         inkscape:connector-curvature="0"
         id="path14"
         style="fill:#000000;fill-opacity:1;fill-rule:nonzero;stroke:none" /><path
         d="m 4408.68,2930.63 0,-138.75 120.22,-69.49 120.21,69.49 0,138.75 -120.21,69.42"
         inkscape:connector-curvature="0"
         id="path16"
         style="fill:#000000;fill-opacity:1;fill-rule:nonzero;stroke:none" /><path
         d="m 4633.47,3263.33 0,294.9 c 0,27.31 -11.32,54.51 -30.67,73.89 -19.33,19.35 -46.53,30.61 -73.89,30.61 -27.38,0 -54.52,-11.26 -73.84,-30.61 -19.42,-19.38 -30.68,-46.58 -30.68,-73.89 l 0,-294.9 104.52,-60.28"
         inkscape:connector-curvature="0"
         id="path18"
         style="fill:#000000;fill-opacity:1;fill-rule:nonzero;stroke:none" /><path
         d="m 3873.05,2603.24 c -23.67,-13.66 -41.57,-37.09 -48.69,-63.46 -7.08,-26.38 -3.23,-55.58 10.48,-79.25 13.65,-23.79 36.97,-41.67 63.41,-48.75 26.43,-7.07 55.64,-3.18 79.3,10.48 l 255.39,147.43 0,120.68 -104.56,60.28"
         inkscape:connector-curvature="0"
         id="path20"
         style="fill:#000000;fill-opacity:1;fill-rule:nonzero;stroke:none" /><path
         d="m 5184.75,2603.24 0,0 -255.32,147.41 -104.5,-60.28 0,-120.68 255.32,-147.43 c 23.75,-13.66 52.87,-17.55 79.35,-10.48 26.45,7.08 49.82,24.96 63.41,48.75 13.66,23.67 17.5,52.87 10.43,79.25 -7.06,26.37 -25.03,49.8 -48.69,63.46"
         inkscape:connector-curvature="0"
         id="path22"
         style="fill:#000000;fill-opacity:1;fill-rule:nonzero;stroke:none" /><path
         d="m 5842.02,4174.34 c -343.72,343.83 -826.95,543.94 -1313.12,543.94 -486.12,0 -969.3,-200.11 -1313.11,-543.94 -343.82,-343.77 -543.89,-826.95 -543.89,-1313.13 0,-486.16 200.07,-969.39 543.89,-1313.1 343.81,-343.82 826.99,-543.88 1313.11,-543.88 486.17,0 969.4,200.06 1313.12,543.88 343.87,343.71 543.98,826.94 543.98,1313.1 0,486.18 -200.11,969.36 -543.98,1313.13 M 6039.4,1967.52 c -6,-2.83 -12.94,-3.64 -19.41,-2.47 l -459.16,85.96 c -11.24,2.11 -21.79,8.01 -29.37,16.47 -7.65,8.5 -12.42,19.56 -13.33,30.98 -2.63,32.74 -15.51,64.64 -36.43,90.09 -20.89,25.31 -49.75,44.13 -81.49,52.97 -31.72,8.84 -66.08,7.64 -97.13,-3.29 -55.7,-19.66 -115.69,-27.09 -174.49,-21.66 -58.83,5.5 -116.38,23.8 -167.62,53.34 l -136.05,78.54 0,-893.49 -191.45,0 0,1004.16 -104.57,60.29 -104.52,-60.29 0,-1004.16 -191.44,0 0,893.49 -136.12,-78.54 c -51.09,-29.54 -108.79,-47.84 -167.6,-53.34 -58.83,-5.43 -118.75,2 -174.51,21.66 -31.02,10.93 -65.4,12.13 -97.08,3.29 -31.79,-8.84 -60.59,-27.66 -81.54,-52.97 -20.9,-25.45 -33.79,-57.35 -36.45,-90.09 -0.81,-11.42 -5.65,-22.48 -13.3,-30.98 -7.6,-8.46 -18.13,-14.36 -29.32,-16.47 l -459.21,-85.96 c -6.47,-1.17 -13.43,-0.36 -19.42,2.47 -6.02,2.84 -11.25,7.43 -14.49,13.19 -3.36,5.77 -4.89,12.61 -4.18,19.21 0.59,6.59 3.24,13.04 7.59,18.13 l 304.02,354.64 c 7.36,8.72 17.73,14.84 28.91,17.19 11.18,2.37 23.14,0.94 33.44,-4 29.73,-14.13 63.76,-18.96 96.26,-13.42 32.44,5.41 63.11,20.96 86.54,44.04 23.55,23.07 39.69,53.46 45.81,85.71 10.83,58.17 34.38,113.75 68.53,161.91 34.15,48.27 78.83,89.02 129.93,118.57 l 136.17,78.52 -773.83,446.75 95.73,165.9 869.56,-502.07 104.56,60.33 0,120.7 -869.56,502.02 95.68,165.84 773.88,-446.73 0,157.12 c 0,59.12 12.89,118.18 37.52,171.81 24.76,53.69 61.16,101.85 106.01,140.35 24.96,21.38 43.22,50.64 51.4,82.43 8.19,31.91 6.36,66.23 -5.12,97.09 -11.53,30.78 -32.62,57.92 -59.82,76.53 -9.42,6.52 -16.65,16.18 -20.13,27.02 -3.53,10.89 -3.42,22.9 0.42,33.66 l 155.19,440.63 c 2.17,6.24 6.4,11.83 11.82,15.64 5.35,3.84 11.96,5.97 18.67,5.97 6.71,0 13.37,-2.13 18.72,-5.97 5.43,-3.81 9.6,-9.4 11.77,-15.64 l 155.25,-440.63 c 3.77,-10.76 3.95,-22.77 0.41,-33.66 -3.59,-10.84 -10.77,-20.5 -20.18,-27.02 -27.09,-18.61 -48.27,-45.75 -59.75,-76.53 -11.56,-30.86 -13.36,-65.18 -5.13,-97.09 8.17,-31.79 26.37,-61.05 51.33,-82.43 44.91,-38.5 81.32,-86.66 106.04,-140.35 24.67,-53.63 37.56,-112.69 37.56,-171.81 l 0,-157.12 773.83,446.73 95.73,-165.84 -869.56,-502.02 0,-120.7 104.5,-60.33 869.55,502.07 95.75,-165.9 -773.78,-446.75 136.11,-78.52 c 51.1,-29.55 95.79,-70.3 129.93,-118.57 34.21,-48.16 57.69,-103.74 68.58,-161.91 6.07,-32.25 22.27,-62.64 45.7,-85.71 23.54,-23.08 54.23,-38.63 86.6,-44.04 32.5,-5.54 66.58,-0.71 96.26,13.42 10.29,4.94 22.24,6.37 33.43,4 11.2,-2.35 21.55,-8.47 28.97,-17.19 l 303.98,-354.64 c 4.33,-5.09 7.06,-11.54 7.63,-18.13 0.71,-6.6 -0.82,-13.44 -4.23,-19.21 -3.23,-5.76 -8.41,-10.35 -14.5,-13.19"
         inkscape:connector-curvature="0"
         id="path24"
         style="fill:#000000;fill-opacity:1;fill-rule:nonzero;stroke:none" /></g></g></svg>