<svg xmlns="http://www.w3.org/2000/svg" xmlns:xlink="http://www.w3.org/1999/xlink" version="1.1" id="Layer_1" x="0px" y="0px" width="512px" height="442.182px" viewBox="0 0 512 442.182" enable-background="new 0 0 512 442.182" xml:space="preserve">
<path d="M58.182,0h372.364v34.909H512V384h-81.454v58.182H58.182v-34.909H0V58.182h58.182V0z M93.091,34.909v302.545h302.546V34.909  H93.091z M186.182,116.363c0-20,16.256-34.909,34.909-34.909h46.546c18.659,0,34.909,14.909,34.909,34.909h34.908  c19.637,0,34.909,13.858,34.909,34.909v116.364c0,21.045-15.272,34.909-34.909,34.909H151.272  c-19.636,0-34.909-13.864-34.909-34.909V151.272c0-21.051,15.273-34.909,34.909-34.909H186.182z M157.091,139.637  c-9.642,0-17.454,7.817-17.454,17.454c0,9.643,7.812,17.455,17.454,17.455c9.643,0,17.455-7.812,17.455-17.455  C174.546,147.454,166.733,139.637,157.091,139.637z M244.363,162.909c-25.704,0-46.545,20.841-46.545,46.545  c0,25.705,20.841,46.546,46.545,46.546c25.705,0,46.546-20.841,46.546-46.546C290.909,183.75,270.068,162.909,244.363,162.909z   M244.363,174.546c19.273,0,34.909,15.63,34.909,34.908c0,19.273-15.636,34.909-34.909,34.909  c-19.278,0-34.909-15.636-34.909-34.909C209.454,190.176,225.085,174.546,244.363,174.546z M34.909,93.091v209.455h23.272V93.091  H34.909z M430.546,279.272h46.545V69.818h-46.545V279.272z" fill="#444"/>
</svg>